<?xml version="1.0" encoding="UTF-8" standalone="no"?>
<svg
   version="1.1"
   width="260pt"
   height="260pt"
   viewBox="0 0 259.99999 260"
   id="svg88"
   sodipodi:docname="logo.svg"
   inkscape:version="1.1.1 (3bf5ae0d25, 2021-09-20)"
   xmlns:inkscape="http://www.inkscape.org/namespaces/inkscape"
   xmlns:sodipodi="http://sodipodi.sourceforge.net/DTD/sodipodi-0.dtd"
   xmlns="http://www.w3.org/2000/svg"
   xmlns:svg="http://www.w3.org/2000/svg">
  <sodipodi:namedview
     id="namedview19"
     pagecolor="#505050"
     bordercolor="#eeeeee"
     borderopacity="1"
     inkscape:pageshadow="0"
     inkscape:pageopacity="0"
     inkscape:pagecheckerboard="0"
     inkscape:document-units="pt"
     showgrid="false"
     fit-margin-top="0"
     fit-margin-left="0"
     fit-margin-right="0"
     fit-margin-bottom="0"
     inkscape:zoom="1.6527337"
     inkscape:cx="119.09281"
     inkscape:cy="165.29687"
     inkscape:window-width="1920"
     inkscape:window-height="1009"
     inkscape:window-x="1272"
     inkscape:window-y="-8"
     inkscape:window-maximized="1"
     inkscape:current-layer="svg88" />
  <defs
     id="defs92">
    <clipPath
       id="cp0">
      <path
         transform="matrix(1,0,0,-1,0,99.2126)"
         d="M 0,99.213 H 325.984 V 0 H 0 Z"
         id="path4" />
    </clipPath>
  </defs>
  <path
     d="m 206.47925,16.853814 c -1.05837,1.266539 -2.97315,1.45534 -4.2739,0.416935 -1.30076,-1.030538 -1.49466,-2.894947 -0.43628,-4.161486 1.06646,-1.266539 2.98123,-1.455339 4.28198,-0.416935 1.29268,1.030538 1.48658,2.894947 0.4282,4.161486 M 56.326966,173.98332 c -1.058378,1.26654 -2.973153,1.45534 -4.273907,0.42481 -1.300754,-1.03841 -1.494655,-2.90282 -0.428199,-4.16149 1.058378,-1.27441 2.973153,-1.45534 4.273907,-0.4248 1.300755,1.0384 1.494656,2.89494 0.428199,4.16148 M 211.60148,0.07413789 C 204.86341,-1.0272004 193.1647,10.450318 188.43028,14.045401 c -5.0172,3.799617 -10.01823,7.638568 -14.98695,11.501119 -5.69585,4.428953 -11.35939,8.89724 -16.97444,13.40486 -45.29211,36.391365 -89.800524,79.44583 -116.187253,131.16939 -1.123012,2.20268 -2.246023,4.62562 -1.76127,7.0407 0.557466,2.78481 3.094341,4.75936 5.647374,6.1203 1.171487,0.6136 2.399528,1.14067 3.659887,1.56547 9.129517,-3.85468 11.262431,-9.73111 11.262431,-9.73111 C 72.42885,149.19534 97.765281,120.12001 121.04959,96.449107 94.444722,127.98672 68.833597,165.00742 62.095528,176.26467 c -2.649983,4.44468 -5.68777,7.44976 -8.782111,9.45577 14.316377,-1.16427 21.52304,-18.55755 26.564473,-26.27478 9.509241,-14.5298 19.85872,-28.5404 30.9838,-41.94526 18.31559,-22.081831 38.88529,-42.31499 60.32753,-61.51761 11.51289,-10.305379 23.21968,-21.523297 36.17067,-30.153069 5.46963,-3.634417 14.0336,-13.271127 14.66378,-17.4719457 0.6221,-4.1929523 -4.47589,-7.316033 -10.42219,-8.28363741"
     fill="#ffffff"
     id="path356"
     style="stroke-width:7.97225;fill:#121212;fill-opacity:1" />
  <path
     d="M 121.05201,96.45068 C 147.81039,69.247624 171.85414,49.163933 171.85414,49.163933 158.39416,55.378628 139.48071,74.604848 121.05201,96.45068"
     fill="#231f20"
     id="path353"
     style="stroke-width:7.97225;fill:#dddddf;fill-opacity:1" />
  <path
     d="m 205.75374,17.710498 c -1.30883,0.865337 -3.08626,0.542802 -3.98306,-0.731604 -0.89679,-1.266539 -0.55746,-3.00508 0.75137,-3.878284 1.30076,-0.873204 3.08626,-0.542802 3.98306,0.731603 0.88871,1.266539 0.55746,3.005081 -0.75137,3.878285 m 51.95746,-6.151762 c -4.29815,-1.6756071 -7.0774,1.43174 -10.16366,3.681617 -3.59525,2.619612 -7.76413,4.43682 -12.32081,4.444687 C 223.98046,19.716507 207.04641,9.0649918 202.27967,7.4129844 197.51294,5.7609769 121.84297,0.0025509 104.71503,0.0025509 87.59516,-0.00531581 6.4313247,0.52961994 6.4313247,0.52961994 3.7409447,3.9831022 2.0685464,7.4916514 1.2767829,10.890067 c 1.0422193,4.224419 3.5144603,8.142037 6.9966037,10.871782 6.1886814,4.861622 14.1547914,3.665883 21.5634354,3.65015 26.685661,-0.0472 53.330926,-1.282272 80.032748,-0.652936 7.27129,0.1652 14.67186,0.188801 21.91084,1.006938 -2.32682,-0.267468 -4.75866,-0.102268 -7.10163,-0.0472 C 92.273028,26.489737 59.97231,28.65308 27.550403,29.140816 21.57986,29.22735 15.237674,29.22735 10.123528,26.206536 4.9124315,23.122789 2.092784,17.49023 1.131357,11.50367 c -1.26035823,6.230428 0.4847531,12.028187 4.5970756,16.252606 6.4714544,6.65523 123.0141874,5.813493 130.0754274,1.109205 7.06124,-4.704288 1.60776,-12.468723 9.85665,-12.264188 8.24888,0.204534 54.0015,4.397486 64.20555,4.185085 8.70132,-0.188801 17.46727,0.755204 26.13628,1.392406 9.24262,0.684403 16.91788,1.864409 23.05809,-6.686696 0.33932,-0.479869 0.67057,-0.999072 0.69481,-1.573341 0.0485,-1.101338 -0.99374,-1.943075 -2.04404,-2.360011"
     fill="#ffffff"
     id="path350"
     style="stroke-width:7.97225;fill:#121212;fill-opacity:1" />
  <path
     d="m 59.565925,239.47599 c 0.250456,-1.57334 -0.08887,-3.11522 -0.82408,-4.47616 4.992957,-0.36186 43.587385,-5.87642 49.121655,-5.91576 5.70393,-0.0472 9.33149,7.4655 9.33149,7.4655 -15.98877,0.0393 -52.19983,2.85562 -57.67754,3.18602 0.02424,-0.0865 0.0404,-0.17307 0.04848,-0.2596"
     fill="#ffffff"
     id="path347"
     style="stroke-width:7.97225;fill:#121212;fill-opacity:1" />
  <path
     d="m 38.275567,227.08514 c 9.242626,-0.0787 14.057841,6.26977 15.5121,14.75007 1.389626,8.1027 -6.035176,14.91527 -15.269724,14.98607 -9.234547,0.0787 -16.780538,-6.52936 -16.845171,-14.7422 -0.06463,-8.21284 7.368247,-14.92314 16.602795,-14.99394 m 0.10503,-3.17814 c -11.213956,0.0865 -20.238444,8.23643 -20.149573,18.20355 0.07271,9.96711 9.226468,17.96754 20.440424,17.88888 11.213957,-0.0865 20.214207,-8.36231 18.533729,-18.18782 C 55.435828,231.5141 49.586474,223.82046 38.380597,223.907"
     fill="#ffffff"
     id="path344"
     style="stroke-width:7.97225;fill:#121212;fill-opacity:1" />
  <path
     d="m 24.440712,207.11082 c -0.05656,-7.28457 6.536088,-13.23966 14.720337,-13.29473 8.192328,-0.0629 14.873843,5.87643 13.75891,13.08233 -1.171486,7.5363 -5.348443,13.21606 -13.540771,13.28686 -8.192328,0.0629 -14.881921,-5.7899 -14.938476,-13.07446 m 31.500875,-0.236 c 1.357309,-8.74778 -6.754227,-15.95368 -16.691666,-15.87501 -9.93744,0.0787 -17.935867,7.3003 -17.863154,16.13461 0.07271,8.8343 8.184249,15.93794 18.129768,15.86714 9.937439,-0.0787 15.011189,-6.98564 16.425052,-16.12674"
     fill="#ffffff"
     id="path341"
     style="stroke-width:7.97225;fill:#121212;fill-opacity:1" />
  <path
     d="m 40.132979,224.83369 -0.01616,-2.32067 -4.774819,0.0393 0.02424,2.32068"
     fill="#ffffff"
     id="path338"
     style="stroke-width:7.97225;fill:#121212;fill-opacity:1" />
  <path
     d="m 1.6112626,188.57291 c 1.2441997,1.26654 1.9147749,2.91855 3.0377863,4.27162 1.9390126,2.34428 4.6778679,3.66588 7.2874561,5.16056 2.819647,1.6284 6.503771,3.18601 9.662746,1.4632 1.510814,-0.83387 2.698459,-2.08467 3.974975,-3.20175 1.098774,-0.9676 3.021628,-2.58814 4.629393,-2.31281 -0.234297,1.04628 -1.123011,2.18695 -1.640082,3.15455 -0.977585,0.354 -1.833982,0.91254 -2.553033,1.68348 -0.832159,0.76307 -1.421942,1.66774 -1.76127,2.71401 -0.137346,0.33827 -0.282772,0.66867 -0.420119,0.99907 -0.09695,0.74734 -0.193901,1.48681 -0.290852,2.23414 v 0.0708 c 0,0.472 0.04848,0.93614 0.129268,1.38454 l -1.987488,3.69735 c 0,0 0.145426,-5.06615 -4.605155,-6.37203 -4.750581,-1.30587 -17.31376661,-3.87828 -17.07139003,-12.21699 0.02423765,-0.79453 -0.01615844,-1.89587 0.30701032,-2.62747 0.12118829,-0.26747 0.3797233,-0.48774 0.67057519,-0.47201 0.25045582,0.0157 0.46051552,0.19667 0.63017912,0.36974"
     fill="#ffffff"
     id="path335"
     style="stroke-width:7.97225;fill:#121212;fill-opacity:1" />
  <path
     d="m 153.97645,218.74958 c 35.47585,1.3216 71.02441,2.17121 106.02359,7.59137 -1.75319,1.24294 -3.75684,2.01387 -5.85743,2.53307 -17.07947,-1.78574 -67.60691,-7.04069 -100.16616,-10.12444"
     fill="#ffffff"
     id="path332"
     style="stroke-width:7.97225;fill:#121212;fill-opacity:1" />
  <path
     d="m 153.44726,223.65843 c 2.14099,-0.0157 3.8861,1.65988 3.90226,3.74455 0.0162,2.07681 -1.70471,3.78389 -3.83763,3.79962 -2.14099,0.0157 -3.89418,-1.65987 -3.91034,-3.74455 -0.0162,-2.07681 1.70472,-3.78388 3.84571,-3.79962 m -97.217245,-8.5747 c 9.961678,2.00601 20.165731,2.57241 30.200121,4.23228 5.372681,0.88894 10.713045,2.11615 15.819114,3.98842 3.36903,1.24294 6.70575,2.72188 9.62235,4.79082 2.53687,1.80148 6.52801,5.10549 6.55224,8.44884 11.56945,-0.2832 23.14697,-0.6844 34.71641,-1.07774 12.66821,-0.4248 25.33643,-0.91253 38.00465,-1.54974 12.65205,-0.62933 25.30411,-1.40814 37.94001,-2.39934 5.93822,-0.46414 11.86837,-0.97547 17.79852,-1.54188 2.0198,-0.19666 4.08808,-0.4248 6.08365,-0.83387 -32.22801,-1.84867 -86.076,-7.87456 -112.21227,-10.91898 -27.70365,-1.18787 -55.310338,-3.02868 -82.529228,-7.9375 -0.01616,0.17307 -0.03232,0.36187 -0.05655,0.53493 -0.258535,1.61268 -0.945269,3.08375 -1.939013,4.26376"
     fill="#ffffff"
     id="path329"
     style="stroke-width:7.97225;fill:#121212;fill-opacity:1" />
  <path
     d="m 153.84637,224.45766 -2.47224,5.16055 c -0.21814,0.46414 -0.0162,1.01481 0.4686,1.23508 0.47667,0.22026 1.04222,0.0157 1.26843,-0.44841 l 2.47224,-5.16055 c 0.21814,-0.472 0.0162,-1.02267 -0.46859,-1.24294 -0.47667,-0.2124 -1.04222,-0.0157 -1.26844,0.45627"
     fill="#ffffff"
     id="path326"
     style="stroke-width:7.97225;fill:#121212;fill-opacity:1" />
</svg>
